<?xml version="1.0" encoding="UTF-8"?>
<svg id="Livello_1" xmlns="http://www.w3.org/2000/svg" version="1.1" viewBox="0 0 512 512">
  <!-- Generator: Adobe Illustrator 30.0.0, SVG Export Plug-In . SVG Version: 2.1.1 Build 123)  -->
  <defs>
    <style>
      .st0 {
        fill-rule: evenodd;
      }

      .st1 {
        fill: #fff;
        stroke: #000;
        stroke-miterlimit: 10;
      }
    </style>
  </defs>
  <rect class="st1" width="512" height="512"/>
  <path d="M364,162.9c-.4-3.2-2.9-5.9-6-5.9s-5.7,2.6-6,5.9c-2.6,21.3-18.9,38.1-39.5,40.8-3.1.4-5.7,3-5.7,6.2s2.6,5.8,5.7,6.2c20.6,2.6,37,19.5,39.5,40.8.4,3.2,2.9,5.9,6,5.9s5.6-2.6,6-5.9c2.6-21.3,18.9-38.1,39.5-40.8,3.1-.4,5.7-3,5.7-6.2s-2.6-5.8-5.7-6.2c-20.6-2.6-37-19.5-39.5-40.8Z"/>
  <path d="M427.1,257.4c-.4-2.3-2.2-4.3-4.5-4.3s-4.1,1.9-4.4,4.3c-1.8,12.5-11.4,22.4-23.5,24.3-2.3.3-4.1,2.2-4.1,4.6s1.9,4.2,4.1,4.6c12.2,2,21.8,12.6,23.5,25.3.3,2.3,2.1,4.3,4.4,4.3s4.1-1.9,4.4-4.3c1.8-13.1,11.9-23.5,24.6-25.3,2.3-.3,4.1-2.2,4.1-4.6s-1.9-4.2-4.1-4.6c-12.3-1.8-22.6-11.7-24.5-24.3h0Z"/>
  <g>
    <path class="st0" d="M120.8,195.5c0-21.2,16.7-38.4,37.3-38.4h111.9c10.3,0,18.7,8.6,18.7,19.2s-8.4,19.2-18.7,19.2h-102.5c-5.1,0-9.3,4.3-9.3,9.6v230.7c0,5.3,4.2,9.6,9.3,9.6h177.1c5.1,0,9.3-4.3,9.3-9.6v-76.9c0-10.6,8.4-19.2,18.7-19.2s18.6,8.6,18.6,19.2v86.5c0,21.2-16.7,38.4-37.3,38.4h-195.8c-20.6,0-37.3-17.2-37.3-38.4v-249.9h0Z"/>
    <path class="st0" d="M321.2,286.8c0,10.6-8.3,19.2-18.6,19.2h-97.9c-10.3,0-18.7-8.6-18.7-19.2s8.4-19.2,18.7-19.2h97.9c10.3,0,18.6,8.6,18.6,19.2Z"/>
    <path class="st0" d="M288.6,358.9c0,10.6-8.4,19.2-18.7,19.2h-65.2c-10.3,0-18.7-8.6-18.7-19.2s8.4-19.2,18.7-19.2h65.2c10.3,0,18.7,8.6,18.7,19.2Z"/>
  </g>
  <polygon class="st0" points="177.1 130.2 153.9 50 153.6 47.6 154.3 45.3 155.9 43.3 158.2 41.6 161 40.6 164 40.2 167.1 40.5 169.9 41.6 218.3 66.4 246.6 22.9 248.3 21 250.5 19.6 253.1 18.7 256 18.4 258.9 18.7 261.5 19.6 263.7 21 265.4 22.9 293.7 66.4 342.1 41.6 344.9 40.5 348 40.2 351 40.6 353.8 41.6 356.1 43.3 357.7 45.3 358.4 47.6 358.1 50 334.9 130.2 177 130.2 177.1 130.2"/>
</svg>